<mxfile host="app.diagrams.net" modified="2023-11-26T21:44:51.198Z" agent="Mozilla/5.0 (Windows NT 10.0; Win64; x64) AppleWebKit/537.36 (KHTML, like Gecko) Chrome/119.0.0.0 Safari/537.36" version="21.8.1" etag="iibo1jnXLiasBwrbhPDW" type="github">
  <diagram name="Page-1" id="nb8h7EakvF74Vw-rqdH2">
    <mxGraphModel>
      <root>
        <mxCell id="0" />
        <mxCell id="1" parent="0" />
      </root>
    </mxGraphModel>
  </diagram>
</mxfile>
